# xmcd
#
# Track frame offsets: 
#        150
#        15897
#        35451
#        51737
#        68984
#        88353
#        110308
#        127713
#        147243
#        162716
#        179530
#        194916
#
# Disc length: 2793 seconds
#
# Revision: 0
# Processed by: cddbd v1.5.2PL0 Copyright (c) Steve Scherf et al.
# Submitted via: ExactAudioCopyFreeDBPlugin 1.0
#
DISCID=b20ae70c
DTITLE=Various Artist - Moments 2010
DYEAR=2010
DGENRE=Blues
TTITLE0=Kai McKenzie - Free
TTITLE1=Ashley Hicklin - Miracle Moments
TTITLE2=Emil Heiling - Stars In Your Eyes
TTITLE3=Iman Osman - Walking On Holy Ground
TTITLE4=Ashley Hicklin - It's Only Love
TTITLE5=Latin Quarter - Angel
TTITLE6=Anna Yina - Lost It
TTITLE7=Tom Kent - I Will Be There
TTITLE8=Ashley Hicklin - The Answer
TTITLE9=Ginger McKenzie - Beautiful You
TTITLE10=Chris Madin - Breezy
TTITLE11=Lou Mullen - See You Smiling
EXTD=
EXTT0=
EXTT1=
EXTT2=
EXTT3=
EXTT4=
EXTT5=
EXTT6=
EXTT7=
EXTT8=
EXTT9=
EXTT10=
EXTT11=
PLAYORDER=
